<svg width="100" height="110" viewBox="0 0 100 110" fill="none" xmlns="http://www.w3.org/2000/svg">
<path fill-rule="evenodd" clip-rule="evenodd" d="M45.6199 0.301344C44.6766 0.768036 44.4666 1.45649 43.9534 5.76265C43.6987 7.90066 43.4464 9.68961 43.3931 9.73819C43.3394 9.787 41.8909 10.0859 40.1735 10.4024C29.9943 12.2786 21.0869 16.782 13.732 23.7709C4.11595 32.9082 -0.962127 45.861 0.151428 58.4118C1.12539 69.3909 5.75676 78.8669 13.8919 86.526C16.7977 89.2616 19.0312 90.9691 22.3566 92.9972C25.0711 94.6525 30.3889 97.1259 31.2334 97.1259C32.6459 97.1259 33.6357 96.1763 33.5947 94.8608C33.563 93.846 33.0138 93.4157 30.0094 92.0523C20.5764 87.7713 13.5383 81.2889 9.09298 72.7868C6.64499 68.1055 5.38615 63.8027 4.84061 58.2546C4.34375 53.1986 5.18059 47.043 7.0786 41.7946C8.13187 38.882 10.9643 33.8107 12.977 31.2344C14.8372 28.8528 18.903 24.9006 21.3977 23.0489C26.8404 19.0088 33.8771 15.932 40.5712 14.6656C41.7238 14.4474 42.7311 14.3275 42.8097 14.399C42.8883 14.4706 42.8364 15.3736 42.6941 16.4057C42.2919 19.326 42.3526 20.4899 42.9367 21.0605C43.5806 21.6898 44.5666 21.9109 45.4205 21.6176C45.7911 21.4901 48.6006 19.5448 51.6636 17.2948C57.5384 12.9787 58.0729 12.4227 57.5347 11.1857C57.129 10.2532 48.3595 0.540201 47.6659 0.255237C46.8091 -0.0967495 46.4063 -0.0877531 45.6199 0.301344ZM67.1152 13.1213C65.9433 13.7011 65.6528 15.1691 66.5037 16.2116C66.6794 16.4268 67.701 16.9671 68.774 17.4122C81.8896 22.853 91.4387 33.7894 94.4718 46.8426C94.9664 48.9713 95.1317 50.4643 95.238 53.7626C95.3936 58.5989 95.13 61.0586 94.0286 65.0503C89.8098 80.3364 76.4891 92.03 59.4085 95.4417C58.3479 95.6536 57.4147 95.7674 57.3346 95.6943C57.2546 95.6214 57.3161 94.5436 57.4715 93.2994C57.8668 90.1352 57.8414 89.8326 57.1145 89.0464C56.6013 88.4911 56.284 88.3543 55.51 88.3543C54.6297 88.3543 54.0609 88.7076 49.0125 92.391C45.9695 94.6113 43.2451 96.6997 42.9577 97.0321C42.3247 97.7648 42.2891 98.6341 42.8621 99.3811C43.9215 100.763 51.6608 109.416 52.0804 109.687C52.868 110.197 54.2746 110.067 54.9879 109.418C55.5735 108.884 55.6525 108.547 56.1148 104.616C56.3883 102.29 56.714 100.324 56.8387 100.247C56.9635 100.169 57.6375 100.042 58.3362 99.9642C61.2986 99.6341 66.9638 98.0664 70.4784 96.6045C86.8538 89.7931 97.6847 76.3125 99.7809 60.1328C100.249 56.5228 99.9358 49.7322 99.1437 46.2958C95.8393 31.9601 85.8645 20.2103 71.7137 13.9839C68.859 12.7279 68.1712 12.5988 67.1152 13.1213ZM66.1277 28.0134C65.7731 28.2345 64.7725 28.9108 63.904 29.5165C60.9424 31.5821 58.0672 32.5352 51.5773 33.6027C44.3203 34.7965 41.313 35.6516 38.4528 37.3344C34.3596 39.7428 31.0207 44.4369 29.5187 49.8944C28.7646 52.6345 28.7772 57.0929 29.5469 59.9014C30.0479 61.729 31.8419 65.4821 32.954 67.0282C33.3832 67.6249 33.3745 67.6563 32.1231 70.0645C31.4278 71.4029 30.6256 73.0547 30.3407 73.735C29.4579 75.8425 28.352 79.8436 28.1932 81.5044C28.0543 82.9553 28.0911 83.1406 28.6295 83.7049C28.9858 84.0783 29.5689 84.372 30.1099 84.4503C30.8566 84.5585 31.1294 84.4746 31.7789 83.9368C32.4557 83.3763 32.6041 83.0342 32.9352 81.2696C33.4568 78.4917 35.0119 74.356 36.6976 71.2642C40.2745 64.7037 47.1616 56.8313 54.5422 50.8665C56.8111 49.0328 57.2499 48.7698 58.041 48.7698C59.2067 48.7698 60.2249 49.7752 60.2249 50.9258C60.2249 51.6163 59.8795 52.0124 56.9511 54.6794C49.6343 61.3437 45.6476 66.3044 44.8592 69.7255C44.6096 70.8089 44.6324 71.0597 45.0499 71.8372C45.7341 73.1102 46.3619 73.3304 48.8215 73.1595C61.8365 72.2553 69.6015 65.1733 71.6174 52.3684C72.0544 49.5926 71.9796 42.4903 71.4765 38.9862C71.0669 36.1338 70.1831 31.8023 69.6267 29.9215C69.0785 28.0683 67.4574 27.1841 66.1277 28.0134Z" fill="#028C32" fill-opacity="0.08"/>
</svg>
