<svg width="110" height="100" viewBox="0 0 110 100" fill="none" xmlns="http://www.w3.org/2000/svg">
<path fill-rule="evenodd" clip-rule="evenodd" d="M11.4452 0.390501C10.6002 0.837215 9.73565 1.73917 9.31369 2.61393C9.14074 2.97241 7.45465 7.63999 5.5666 12.986C3.67877 18.3321 2.04553 22.7389 1.93725 22.7792C1.43021 22.967 0.666016 23.8049 0.349551 24.5202C0.0979687 25.0883 0 25.9661 0 27.6481C0 30.2137 0.238476 31.0309 1.28111 32.0367L1.87816 32.6127L3.63193 54.2407C4.59637 66.1361 5.48475 76.0677 5.60613 76.311C6.13422 77.3689 7.8085 77.2984 8.35893 76.1951C8.56045 75.7917 8.26182 71.4167 6.88381 54.5786C5.93377 42.9677 5.15625 33.3013 5.15625 33.0979C5.15625 32.7645 5.98447 32.7279 13.5352 32.7279C21.6277 32.7279 21.9287 32.7122 22.3438 32.2671C22.8867 31.6849 22.8953 30.6364 22.3629 29.9312L21.9523 29.3873L12.5875 29.3226L3.22266 29.2581V27.5371V25.8164H12.5684C21.6277 25.8164 21.9272 25.8023 22.3438 25.3556C22.8867 24.7734 22.8953 23.7249 22.3629 23.0197L21.9523 22.4758L13.8765 22.4101C9.43486 22.3742 5.80078 22.2915 5.80078 22.2265C5.80078 22.1618 7.21316 18.0962 8.93922 13.192C13.2999 0.803118 13.3203 0.787682 13.3203 9.87471V16.2803L13.9406 17.329C14.3526 18.0262 14.8796 18.5434 15.5121 18.8717C16.3889 19.3267 16.8055 19.3656 20.81 19.3656C25.138 19.3656 25.1584 19.3633 25.6835 18.8C26.3557 18.0794 26.3557 17.1961 25.6835 16.4754C25.161 15.9149 25.1197 15.9098 21.1073 15.9098C18.2447 15.9098 16.983 15.8288 16.8008 15.6334C16.6137 15.4327 16.543 13.7313 16.543 9.42454V3.49216L23.7594 3.42304L30.976 3.35393L31.3863 2.80999C31.8835 2.15132 31.9146 1.21758 31.4624 0.525505L31.1281 0.013362L21.6333 0.0186605C13.3919 0.0232682 12.0471 0.0723405 11.4452 0.390501ZM37.134 0.478968C35.6192 1.33715 35.2834 2.06839 31.5818 12.5725C28.452 21.4545 27.9662 22.6767 27.4315 23.0147C26.3317 23.7095 25.914 24.7619 25.8199 27.0749C25.7131 29.6979 25.9961 30.8652 26.9577 31.7704L27.6983 32.468L30.2726 63.9248C32.5501 91.7582 32.8988 95.5084 33.3001 96.4813C33.8961 97.9265 34.6723 98.7847 35.9863 99.451L37.0605 99.9954H55H72.9395L74.0137 99.451C75.3268 98.7851 76.1039 97.9267 76.6984 96.485C77.0978 95.5167 77.4503 91.7218 79.724 63.9304L82.2974 32.4719L83.0229 31.7888C83.9687 30.8984 84.3137 29.4041 84.165 26.8452C84.0409 24.7121 83.6413 23.7392 82.607 23.0524C82.0256 22.6663 81.6129 21.6333 78.4178 12.5686C74.6926 2.00042 74.3776 1.31964 72.8198 0.467449C72.0292 0.0347878 71.5168 0.013362 62.0065 0.013362H52.0233L51.5782 0.620423C50.9985 1.41064 51.0162 1.91564 51.651 2.70747L52.1694 3.35393L59.9225 3.41982L67.6758 3.48571V9.42132C67.6758 13.7306 67.6051 15.4327 67.418 15.6334C67.0459 16.0324 42.9541 16.0324 42.582 15.6334C42.3949 15.4327 42.3242 13.7288 42.3242 9.41302V3.46912H44.011C45.8973 3.46912 46.9567 3.16663 47.2701 2.5386C47.6083 1.86104 47.5138 0.970607 47.0508 0.47413C46.6486 0.0428511 46.3416 0.0140528 42.2705 0.0234985C38.3962 0.0327139 37.834 0.0824771 37.134 0.478968ZM78.5419 0.518594C78.059 1.2579 78.1125 2.38793 78.6549 2.91505C79.0773 3.32513 79.5786 3.35854 86.2819 3.42304L93.457 3.49216V9.42454C93.457 13.7313 93.3863 15.4327 93.1992 15.6334C93.017 15.8288 91.7553 15.9098 88.8927 15.9098C84.8803 15.9098 84.839 15.9149 84.3165 16.4754C83.6402 17.2005 83.6447 18.0798 84.3283 18.8127L84.8674 19.3909L89.4498 19.3207L94.0324 19.2504L94.8883 18.6136C95.3593 18.2635 95.955 17.5755 96.2122 17.0848C96.661 16.2285 96.6797 15.9377 96.6797 9.83094C96.6797 3.1657 96.7315 2.82543 97.5872 3.87229C97.8551 4.20013 104.199 21.8058 104.199 22.2219C104.199 22.2894 100.565 22.3742 96.1235 22.4101L88.0477 22.4758L87.6371 23.0197C87.1048 23.7249 87.1133 24.7734 87.6562 25.3556C88.0728 25.8023 88.3723 25.8164 97.4316 25.8164H106.777V27.5371V29.2581L97.4125 29.3226L88.0477 29.3873L87.6371 29.9312C87.1048 30.6364 87.1133 31.6849 87.6562 32.2671C88.0713 32.7122 88.3723 32.7279 96.4648 32.7279H104.844L104.841 33.2462C104.84 33.5314 104.695 35.4234 104.52 37.4507C104.082 42.5141 104.097 43.3852 104.632 43.9043C105.213 44.4687 106.264 44.4394 106.82 43.843C107.219 43.4151 107.319 42.7604 107.721 37.9256C108.166 32.5839 108.184 32.4804 108.746 31.975C109.75 31.0735 110 30.2102 110 27.6481C110 25.9661 109.902 25.0883 109.65 24.5202C109.334 23.8058 108.571 22.9679 108.064 22.7792C107.956 22.7389 106.285 18.2273 104.35 12.7534C102.415 7.27921 100.609 2.4529 100.338 2.0283C100.067 1.60347 99.495 1.0024 99.0679 0.692303L98.291 0.128554L88.5859 0.0642769L78.8807 0L78.5419 0.518594ZM39.1016 9.6987C39.1016 15.3689 39.1383 16.005 39.5104 16.783C40.0271 17.8637 40.7165 18.5551 41.7295 19.009C42.4172 19.3172 44.2236 19.3649 55.0468 19.3605C66.7612 19.3557 67.6238 19.3281 68.4277 18.9302C69.4678 18.4155 70.1224 17.6861 70.5659 16.5476C70.8376 15.8502 70.8984 14.5778 70.8984 9.58166C70.8984 4.5434 70.9504 3.46912 71.1945 3.46912C71.3571 3.46912 71.5993 3.60988 71.7327 3.78198C71.8659 3.95431 73.4171 8.17886 75.1796 13.1701L78.3847 22.2454L66.6922 22.3051C60.2615 22.3378 49.7391 22.3378 43.3091 22.3051L31.6183 22.2454L34.8141 13.1803C36.5718 8.19429 38.1223 3.96951 38.2598 3.79212C38.3971 3.61449 38.6429 3.46912 38.8055 3.46912C39.0498 3.46912 39.1016 4.56091 39.1016 9.6987ZM80.9518 27.6018L81.015 29.2721H55.0095H29.0039V27.6979C29.0039 26.8319 29.0688 26.0541 29.1481 25.9691C29.2273 25.8841 40.9013 25.8408 55.0904 25.873L80.8887 25.9315L80.9518 27.6018ZM78.9173 32.9007C78.9695 32.9956 77.8731 46.9944 76.4807 64.0087C74.727 85.4406 73.8631 95.0658 73.6684 95.3409C72.7665 96.6161 74.0506 96.5341 55 96.5341C35.9429 96.5341 37.2346 96.6168 36.3281 95.3365C36.1292 95.0555 35.2862 85.6692 33.5143 64.0043C32.123 46.9923 31.0282 32.9956 31.0812 32.9007C31.2073 32.6747 78.7931 32.6747 78.9173 32.9007ZM53.1738 48.3037C52.0945 48.9345 51.5906 49.5567 50.1172 52.0778C49.3391 53.4097 48.4672 54.9002 48.1798 55.3907L47.6575 56.2821L47.2534 55.5697C46.7857 54.7452 46.0988 54.4883 45.2674 54.8272C44.2099 55.2585 44.1356 55.8828 44.7807 58.9163C45.3535 61.6104 45.6687 62.3115 46.4221 62.5679C46.8471 62.7126 51.4312 61.8477 52.015 61.5127C52.5022 61.2333 52.8329 60.1429 52.6187 59.5222C52.3763 58.8195 51.4536 58.2251 50.8101 58.3569C50.5149 58.4175 50.2734 58.4357 50.2734 58.3975C50.2734 58.3592 51.1721 56.7926 52.2708 54.9161C54.2006 51.6196 54.2945 51.5019 55.0481 51.4337C55.773 51.3682 55.8903 51.4537 56.7099 52.6432C57.5184 53.817 57.6615 53.9232 58.4321 53.9232C59.3858 53.9232 59.9414 53.3226 59.9414 52.2914C59.9414 51.4726 58.5911 49.3222 57.6368 48.6209C56.6412 47.8894 54.1814 47.7143 53.1738 48.3037ZM104.014 48.8227C103.484 49.3915 103.66 47.6201 101.614 72.9298C100.672 84.5873 99.8482 94.3717 99.7833 94.673C99.7184 94.9744 99.3878 95.5188 99.0486 95.8825L98.4315 96.5442H89.9607C81.232 96.5442 80.3406 96.6267 79.9174 97.4747C79.5792 98.1523 79.6737 99.0427 80.1367 99.5392C80.5529 99.9854 80.8528 100 89.6711 100C99.7775 100 99.5917 100.025 101.212 98.4552C102.213 97.4855 102.846 96.279 103.02 95.0103C103.087 94.5235 103.957 84.1207 104.954 71.8931C106.723 50.1928 106.757 49.6473 106.375 49.0851C105.852 48.3177 104.614 48.1799 104.014 48.8227ZM60.0104 54.8883C59.4395 55.1843 59.2163 55.7538 58.6429 58.3772C58.0946 60.8858 58.1472 61.6802 58.9022 62.2817C59.7474 62.9554 60.4946 62.7006 61.2915 61.4671C61.5203 61.113 61.7665 61.4404 63.2715 64.0997C64.3573 66.0183 64.9778 67.3518 64.9563 67.7216C64.9157 68.4256 64.1693 69.1285 63.4625 69.1285C62.7885 69.1285 62.0898 69.8985 62.0898 70.6412C62.0898 72.1161 63.0715 72.7647 64.6787 72.3511C66.7292 71.8236 68.197 69.7978 68.1822 67.5158C68.1727 66.0766 68.0853 65.8686 65.907 62.0912C65.0336 60.5764 64.2503 59.2137 64.1663 59.0628C64.0555 58.8633 64.2155 58.8237 64.7548 58.9174C66.2359 59.1752 67.1625 57.2686 66.1066 56.136C65.7256 55.7276 65.0399 55.4909 63.1325 55.1097C61.7689 54.8373 60.6141 54.6212 60.566 54.63C60.5178 54.6385 60.268 54.7546 60.0104 54.8883ZM43.7207 63.6251C43.4844 63.7488 43.0886 64.1826 42.8416 64.5888C41.45 66.8749 41.6683 69.3181 43.4294 71.1642C44.5719 72.362 45.6878 72.5843 50.5605 72.5843C54.7042 72.5843 54.8395 72.5988 54.4962 73.0057C54.007 73.5853 54.045 74.7856 54.5703 75.3489C54.8221 75.6189 55.289 75.8108 55.6982 75.8122C56.3004 75.8143 56.6554 75.5228 58.2764 73.6959C60.8145 70.8347 60.8156 70.6696 58.3135 67.9202C57.3051 66.812 56.2354 65.8396 55.9361 65.7592C54.6657 65.4173 53.6746 67.2949 54.453 68.5689L54.795 69.1285H50.4836C46.1923 69.1285 46.1695 69.1258 45.6446 68.5629C45.0068 67.8789 44.9838 67.3907 45.5469 66.4791C46.2606 65.3233 46.0889 64.2534 45.1017 63.706C44.4084 63.3215 44.3113 63.3157 43.7207 63.6251ZM6.41652 81.6001C5.89359 82.1609 5.9052 82.6518 6.64404 91.2405C7.07996 96.3062 7.28879 97.0027 8.81676 98.4829C10.4146 100.031 10.1802 100 20.2959 100C29.1472 100 29.4471 99.9854 29.8633 99.5392C30.3263 99.0427 30.4208 98.1523 30.0826 97.4747C29.6598 96.6276 28.7661 96.5442 20.1036 96.5442C10.9325 96.5442 11.0945 96.5668 10.4433 95.2054C10.2612 94.8248 9.95457 92.1985 9.6482 88.3939C9.23248 83.2282 9.08338 82.1113 8.74887 81.6552C8.22314 80.9387 7.05912 80.911 6.41652 81.6001Z" fill="#028C32" fill-opacity="0.08"/>
</svg>
