<svg width="90" height="87" viewBox="0 0 90 87" fill="none" xmlns="http://www.w3.org/2000/svg">
<path fill-rule="evenodd" clip-rule="evenodd" d="M46.4046 0.248801C43.6064 0.701126 41.8435 1.20573 41.3289 1.7015C40.4802 2.51891 40.6007 2.88672 43.2021 7.41337L45.5598 11.5162L44.9629 11.706C43.9609 12.0245 42.4998 13.4514 42.0868 14.5148C41.523 15.9666 41.5926 17.345 42.2979 18.693L42.8705 19.7874L41.461 20.6988C39.3267 22.0791 36.0787 25.3058 34.455 27.6587C31.3466 32.1631 29.5627 37.1385 29.278 42.097L29.165 44.0655L28.3537 44.2661C27.168 44.5592 24.1749 45.9834 22.6766 46.9672C21.9611 47.437 20.028 48.9635 18.3807 50.3597L15.3855 52.898L14.8098 52.4137C14.1387 51.8494 13.5525 51.6729 12.8749 51.8314C12.2054 51.9879 0.211203 63.5425 0.0487597 64.1874C-0.0160766 64.4441 -0.0162528 64.8642 0.0482312 65.1209C0.211555 65.7712 21.714 86.4855 22.3889 86.6428C22.6555 86.7049 23.0916 86.7043 23.3579 86.6413C23.8934 86.515 35.574 75.4314 36.0118 74.6342C36.3747 73.9733 36.3234 73.4427 35.8284 72.7401L35.3932 72.1222L48.4697 72.1197C62.853 72.117 62.7992 72.1204 64.8303 71.0776C65.5978 70.6834 68.7363 67.9464 77.2678 60.2314C83.5439 54.5559 88.864 49.6307 89.0902 49.2863C89.7932 48.2169 90.0002 47.393 90 45.6657C90 44.2103 89.9434 43.9171 89.4815 42.9767C88.0875 40.1381 84.7384 38.633 81.6234 39.4453C80.761 39.6702 79.8131 40.1638 77.8286 41.4218C76.3736 42.3441 75.1583 43.0987 75.128 43.0987C75.0977 43.0987 75.0172 42.4305 74.9492 41.6136C74.5492 36.8076 72.7576 31.9656 69.7855 27.6587C68.1618 25.3058 64.9138 22.0791 62.7795 20.6988L61.37 19.7874L61.9426 18.693C62.6079 17.4216 62.7088 16.041 62.2347 14.7005C61.8707 13.6711 60.5336 12.2482 59.5084 11.7988L58.6996 11.4444L61.0479 7.38214C63.6421 2.89452 63.7644 2.5218 62.9116 1.70269C62.3758 1.18808 60.6489 0.702314 57.7404 0.247782C55.6221 -0.083018 48.4535 -0.0825088 46.4046 0.248801ZM57.2927 3.6174C58.1511 3.75725 58.8817 3.89881 58.9161 3.93207C58.9506 3.96534 58.1245 5.47473 57.0802 7.28641L55.1815 10.5805H52.1203H49.059L47.1541 7.27843L45.2492 3.97637L46.1895 3.76998C48.8504 3.18544 54.1918 3.11212 57.2927 3.6174ZM56.3415 14.4157C58.3299 14.8731 58.9915 15.3597 58.9915 16.3647C58.9915 17.1615 58.754 17.5735 58.1097 17.8946C57.6328 18.1322 57.4721 18.1224 56.1327 17.7741C54.1252 17.2522 50.0499 17.2489 48.068 17.7678C46.9219 18.0679 46.6726 18.0842 46.1881 17.891C45.523 17.6257 45.249 17.1907 45.249 16.4006C45.249 15.1986 46.0998 14.7129 49.2044 14.1427C50.9946 13.814 54.2706 13.9392 56.3415 14.4157ZM55.7321 21.1858C62.3256 22.9866 68.3572 29.4755 70.6025 37.1837C71.3229 39.6575 71.7167 43.5641 71.3973 45.0718C71.3095 45.4868 70.6805 45.9471 67.1951 48.1481C64.9408 49.5716 63.0346 50.7365 62.9592 50.7365C62.8838 50.7365 62.5052 50.4607 62.1179 50.1234C61.7305 49.7863 60.8883 49.2721 60.2465 48.9808C59.1351 48.4764 58.9559 48.4482 56.4809 48.3873L53.8821 48.3233L53.8879 47.3659L53.8939 46.4084L54.8069 45.8992C59.0977 43.5066 57.6828 37.1173 52.7369 36.552C51.4705 36.4072 50.9056 36.1578 50.6144 35.6152C49.9005 34.2852 51.0002 32.8605 52.5153 33.1523C52.8282 33.2127 53.3884 33.4975 53.7602 33.7852C54.1416 34.0805 54.7264 34.346 55.1031 34.3945C55.6649 34.4672 55.8638 34.4001 56.3637 33.9699C57.5892 32.915 56.9765 31.5019 54.8238 30.4183L53.883 29.9448L53.8825 28.8071C53.8821 27.4695 53.6423 26.8696 52.9756 26.5375C52.0635 26.0831 50.9597 26.3981 50.5689 27.2244C50.4532 27.4691 50.3558 28.1813 50.3526 28.8071L50.3466 29.9448L49.4336 30.454C45.1428 32.8466 46.5577 39.2359 51.5036 39.8012C52.77 39.946 53.3349 40.1953 53.6261 40.738C54.3451 42.0775 53.2519 43.4789 51.706 43.1995C51.3519 43.1355 50.7023 42.7484 50.1072 42.2465C48.962 41.2811 48.266 41.154 47.4619 41.7631C46.8084 42.2584 46.6019 42.8434 46.8377 43.5317C47.0743 44.2227 48.4907 45.517 49.555 46.0152L50.3584 46.3913V47.3981V48.4049L49.6956 48.3194C49.2646 48.2637 48.5402 47.8929 47.6254 47.2599C43.8605 44.6548 39.7668 43.3766 35.1397 43.3613L32.6944 43.3533L32.8031 41.8709C33.5374 31.8583 41.2707 22.3953 49.9763 20.8565C51.2601 20.6296 54.3413 20.8058 55.7321 21.1858ZM85.1156 43.0965C86.5554 44.047 87.0468 45.7638 86.2701 47.1308C85.7115 48.1142 64.1923 67.5503 62.9557 68.1883L62.0747 68.6428L46.9228 68.688L31.7708 68.7331L24.8115 62.017L17.8521 55.3006L18.3123 54.9281C18.5655 54.7231 19.9133 53.595 21.3075 52.4215C25.232 49.118 27.1068 48.0514 30.4285 47.233C35.6176 45.9544 41.1694 46.9758 45.5727 50.0192C48.0854 51.7559 47.6441 51.6586 53.4417 51.7549C58.4374 51.8379 58.566 51.8487 59.2235 52.2425C59.5935 52.464 60.1089 52.955 60.3687 53.3333C60.7625 53.9065 60.8414 54.2098 60.8414 55.1494C60.8414 56.089 60.7625 56.3923 60.3687 56.9655C60.1089 57.3438 59.5935 57.8349 59.2235 58.0564C58.5519 58.4586 58.5419 58.4593 51.5036 58.544C47.6275 58.5907 44.3145 58.6954 44.1413 58.7767C43.7615 58.9551 43.311 59.7497 43.311 60.2413C43.311 60.8278 43.7897 61.538 44.3307 61.7539C44.7032 61.9026 46.7374 61.9428 51.9687 61.9051L59.0988 61.8537L60.4297 61.2197C62.0351 60.4551 63.0369 59.4682 63.798 57.9012C64.2661 56.9377 64.3474 56.5716 64.3555 55.3889L64.3652 54.0046L72.8725 48.6151C77.5514 45.6509 81.6742 43.0775 82.0341 42.8964C82.9036 42.4588 84.2856 42.5486 85.1156 43.0965ZM22.6974 64.909L31.9459 73.8197L27.4095 78.1898L22.8733 82.5598L13.5803 73.6075L4.28743 64.6552L8.77806 60.3266C11.248 57.9459 13.3092 55.9981 13.3587 55.9981C13.4082 55.9981 17.6106 60.0079 22.6974 64.909ZM37.1639 58.7809C35.6365 59.5965 36.2755 61.9385 38.0254 61.9385C38.9181 61.9385 39.7873 61.1094 39.7873 60.2577C39.7873 58.9834 38.3254 58.1606 37.1639 58.7809Z" fill="#028C32"/>
</svg>
