<svg width="86" height="85" viewBox="0 0 86 85" fill="none" xmlns="http://www.w3.org/2000/svg">
<path fill-rule="evenodd" clip-rule="evenodd" d="M35.2882 0.407568C34.8779 0.813643 34.8765 0.826758 34.8765 4.21132V7.6075L34.1639 7.7267C32.1877 8.0569 27.7637 9.80057 25.1068 11.2962L23.5925 12.1487L21.1979 9.78197C19.131 7.73915 18.7311 7.41542 18.2748 7.41542C17.8053 7.41542 17.1745 7.98153 12.6179 12.493C8.06135 17.0045 7.48957 17.629 7.48957 18.0939C7.48957 18.5456 7.81654 18.9416 9.87979 20.988L12.2702 23.3589L11.4092 24.8582C9.89857 27.4889 8.13747 31.869 7.80396 33.8257L7.68357 34.5312H4.25343C0.835025 34.5312 0.821779 34.5326 0.411644 34.9388L0 35.3462V42.5V49.6538L0.411644 50.0612C0.821779 50.4674 0.835025 50.4688 4.25343 50.4688H7.68357L7.80396 51.1743C8.13663 53.126 9.95273 57.6456 11.4271 60.1916L12.2678 61.6433L9.92909 63.9833C8.64268 65.2702 7.54205 66.4609 7.48337 66.6289C7.42451 66.7971 7.49091 67.1732 7.63075 67.4649C7.96393 68.1602 17.2176 77.2926 17.814 77.5149C18.0669 77.609 18.4064 77.6407 18.5686 77.5856C18.7309 77.5303 19.9276 76.4424 21.2281 75.1682L23.5925 72.8513L25.1068 73.7038C27.748 75.1906 31.459 76.666 33.9124 77.2046L34.8765 77.4161V80.8006C34.8765 84.1726 34.8781 84.1865 35.2882 84.5924L35.6997 85H42.925H50.1503L50.5618 84.5924C50.9717 84.1867 50.9734 84.1716 50.9736 80.8156L50.9738 77.4463L52.1892 77.1534C52.8578 76.9922 53.4523 76.8616 53.5107 76.8629C53.5689 76.8642 53.6499 77.8177 53.6906 78.9819C53.7513 80.7171 53.8306 81.2341 54.1307 81.8509C54.7005 83.0211 55.3835 83.7291 56.5361 84.3446C57.5054 84.862 57.7192 84.9109 59.0219 84.9109C60.3235 84.9109 60.5388 84.8619 61.5036 84.3467C62.6765 83.7205 63.1817 83.204 63.8517 81.9465L64.3036 81.0986L64.3529 72.839L64.4021 64.5794L64.0063 64.1876L63.6105 63.7957L63.999 63.3486C64.3543 62.9397 64.3875 62.7453 64.3875 61.077C64.3875 59.3612 64.363 59.2282 63.9758 58.8451C63.5964 58.4692 63.4396 58.4375 61.9637 58.4375H60.3633V51.6488V44.8602L60.766 44.7601C61.3353 44.6187 62.6096 43.1566 62.8467 42.3732C62.9795 41.9344 63.0461 40.208 63.0461 37.2023V32.69L62.6344 32.2826C62.2263 31.8783 62.197 31.875 59.0219 31.875C55.8467 31.875 55.8174 31.8783 55.4093 32.2826L54.9976 32.69V37.2023C54.9976 40.2596 55.0634 41.9347 55.2015 42.3977C55.4232 43.1403 56.9613 44.8242 57.418 44.8242C57.6519 44.8242 57.6804 45.5651 57.6804 51.6309V58.4375H56.08C54.6041 58.4375 54.4473 58.4692 54.0679 58.8451C53.6807 59.2282 53.6562 59.3612 53.6562 61.077C53.6562 62.7453 53.6894 62.9397 54.0447 63.3486L54.4332 63.7957L54.0447 64.1803C53.6567 64.5645 53.6562 64.5713 53.6562 69.2838V74.0025L52.0214 74.4374C51.1221 74.6765 50.0619 74.9511 49.665 75.0474C48.308 75.3769 48.2906 75.4284 48.2906 79.1064V82.3438H42.925H37.5594V79.1378C37.5594 75.5223 37.5129 75.3769 36.2592 75.0575C33.1314 74.2609 32.0908 73.9528 30.777 73.4349C28.8375 72.6703 26.9482 71.733 25.2743 70.7051C23.2761 69.4782 23.3279 69.4619 20.5835 72.174L18.2748 74.4554L14.4625 70.6807L10.6501 66.9061L12.9543 64.6203C15.6478 61.9484 15.6671 61.8969 14.5928 60.2512C12.5604 57.1378 11.0951 53.5307 9.99683 48.9378C9.93747 48.6891 9.72452 48.3343 9.52381 48.1492C9.18343 47.8351 8.94181 47.8125 5.9208 47.8125H2.68281V42.5V37.1875H5.9208C8.94181 37.1875 9.18343 37.1649 9.52381 36.8508C9.72452 36.6657 9.93747 36.3109 9.99683 36.0622C11.0951 31.4693 12.5604 27.8622 14.5928 24.7488C15.6671 23.1031 15.6478 23.0516 12.9543 20.3797L10.6501 18.0939L14.4625 14.3193L18.2748 10.5446L20.5835 12.826C23.3279 15.5381 23.2761 15.5218 25.2743 14.2949C28.5865 12.2609 31.4238 11.1322 36.1754 9.95845C37.5208 9.62592 37.5594 9.51187 37.5594 5.86218V2.65625H42.925H48.2906V5.86218C48.2906 8.85328 48.3134 9.09251 48.6307 9.42952C48.8176 9.62824 49.1759 9.83908 49.4271 9.89785C54.066 10.9853 57.7091 12.4361 60.8537 14.4483C62.5159 15.512 62.5679 15.4929 65.2664 12.826L67.5752 10.5446L71.3874 14.3193L75.1999 18.0939L72.8957 20.3797C70.1978 23.0561 70.1812 23.1006 71.2694 24.7674C71.765 25.5269 73.7201 29.2093 73.8749 29.675C73.898 29.7449 76.0321 28.866 76.1808 28.7254C76.3464 28.5688 75.4207 26.5326 74.3426 24.6817L73.5748 23.3639L75.9677 20.9905C78.0318 18.9432 78.3604 18.5454 78.3604 18.0945C78.3604 17.6307 77.788 17.005 73.2614 12.5214C68.52 7.82498 68.1211 7.4707 67.5765 7.4707C67.047 7.4707 66.7638 7.69499 64.6284 9.80538L62.2664 12.1399L60.4565 11.1435C57.7165 9.63472 53.7335 8.0911 51.6022 7.71176L50.9734 7.5997V4.20733C50.9734 0.826924 50.9719 0.813477 50.5618 0.407568L50.1503 0H42.925H35.6997L35.2882 0.407568ZM39.5715 12.1381C35.9711 12.5443 32.0837 13.7162 28.8402 15.3732C19.5714 20.1086 13.3877 29.0571 12.2502 39.3807C12.1526 40.2673 12.0727 41.3319 12.0727 41.7465V42.5H13.3892H14.706L14.8195 40.8813C15.5065 31.0833 20.8496 22.7388 29.4271 18.0686C32.9672 16.141 36.5116 15.0917 40.7033 14.7299L42.925 14.5382V13.2457V11.9531L41.877 11.9747C41.3007 11.9865 40.2631 12.06 39.5715 12.1381ZM40.4937 17.3634C35.5483 18.0658 32.2303 19.2537 28.6618 21.5991C26.5392 22.9943 23.2243 26.2765 21.8151 28.378C15.9966 37.0559 15.9966 47.9441 21.8151 56.622C23.2204 58.7177 26.5395 62.006 28.6504 63.3934C31.6015 65.333 34.9949 66.6954 38.4816 67.3409C40.7472 67.7604 45.222 67.7616 47.3684 67.3432C49.4776 66.9322 51.3084 66.3888 51.3104 66.1732C51.3136 65.8312 50.5764 63.916 50.4416 63.916C50.3674 63.916 49.6042 64.0968 48.7453 64.3178C40.8762 66.3422 32.565 64.1071 26.837 58.4264C23.5583 55.1746 21.4457 51.2074 20.5193 46.5614C20.0753 44.3351 20.1177 40.3116 20.6094 38.0176C22.5593 28.9189 29.5321 22.1415 38.823 20.3143C40.9083 19.9043 45.1574 19.902 47.1169 20.3099C49.0084 20.7038 51.6765 21.5928 53.1064 22.3059C56.0788 23.7879 59.6791 26.779 61.2633 29.0825L61.9116 30.0251L62.9783 29.3315C63.565 28.9498 64.0468 28.5681 64.0486 28.4831C64.0565 28.1365 62.0883 25.8267 60.4702 24.2836C56.918 20.8961 52.7563 18.7508 47.7876 17.7457C46.2533 17.4353 41.6761 17.1954 40.4937 17.3634ZM66.7832 34.247L64.3875 36.6191V42.495V48.3708L67.0656 51.04L69.7437 53.7094L69.7903 67.404L69.8369 81.0986L70.2154 81.8509C70.8113 83.0352 71.488 83.7333 72.6329 84.3446C73.6049 84.8635 73.8125 84.9105 75.1187 84.9072C76.3298 84.904 76.6726 84.8373 77.4003 84.4629C78.6625 83.8135 79.1892 83.3105 79.8276 82.1447L80.4005 81.0986L80.4471 67.404L80.4937 53.7094L83.1719 51.04L85.85 48.3708V42.495V36.6191L83.4542 34.247L81.0585 31.875H79.1708C77.3904 31.875 77.2599 31.8981 76.8718 32.2826L76.4601 32.69V37.5951V42.5H75.1187H73.7773V37.5951V32.69L73.3657 32.2826C72.9775 31.8981 72.8471 31.875 71.0667 31.875H69.179L66.7832 34.247ZM60.3633 38.1081C60.3633 41.6845 60.3633 41.685 59.9516 42.0924C59.6922 42.3494 59.3485 42.5 59.0219 42.5C58.6952 42.5 58.3515 42.3494 58.0921 42.0924C57.6804 41.685 57.6804 41.6845 57.6804 38.1081V34.5312H59.0219H60.3633V38.1081ZM71.0945 39.4362V44.3413L71.5061 44.7487C71.9143 45.1529 71.9436 45.1562 75.1187 45.1562C78.2938 45.1562 78.3232 45.1529 78.7313 44.7487L79.1429 44.3413V39.4362V34.5312H79.5172C79.7665 34.5312 80.4379 35.0703 81.5293 36.1467L83.1672 37.7622V42.495V47.2276L80.5263 49.8462L77.8854 52.4648L77.8015 66.5621C77.7189 80.4761 77.7132 80.6653 77.3719 81.1177C76.715 81.989 76.1791 82.2607 75.1187 82.2607C74.0583 82.2607 73.5225 81.989 72.8655 81.1177C72.5243 80.6653 72.5186 80.4761 72.4359 66.5621L72.3521 52.4648L69.7112 49.8462L67.0703 47.2276V42.5012V37.7745L68.7019 36.1529C69.8091 35.0525 70.456 34.5312 70.714 34.5312H71.0945V39.4362ZM61.7047 61.4625C61.7047 61.6886 61.3338 62.2022 60.7457 62.7906C59.8604 63.6765 59.7291 63.75 59.0319 63.75C58.3381 63.75 58.1986 63.6731 57.308 62.8006C56.6912 62.1963 56.339 61.7135 56.339 61.4724C56.339 61.0939 56.3405 61.0938 59.0219 61.0938C61.6819 61.0938 61.7047 61.0969 61.7047 61.4625ZM61.7047 72.3828V78.3594H59.0219H56.339V72.3828V66.4062H59.0219H61.7047V72.3828ZM60.8379 81.5912C60.1615 82.2139 59.3498 82.4417 58.4214 82.2692C58.0861 82.207 57.5495 81.9076 57.2058 81.5912L56.5906 81.0246H59.0219H61.4532L60.8379 81.5912Z" fill="#028C32"/>
</svg>
