<svg width="90" height="70" viewBox="0 0 90 70" fill="none" xmlns="http://www.w3.org/2000/svg">
<path fill-rule="evenodd" clip-rule="evenodd" d="M0 1.62602V3.25203H1.49414H2.98828V1.62602V0H1.49414H0V1.62602ZM5.97656 1.62755V3.2551L16.4795 3.20574L26.9824 3.15639L27.0334 1.57819L27.0845 0H16.5305H5.97656V1.62755ZM0.431543 6.9737L0 7.44314V34.1523V60.8616L0.513809 61.4208L1.02762 61.98H6.56578H12.1039L12.3954 63.0799C13.2302 66.2315 15.7454 68.893 18.6975 69.7485C19.855 70.0838 22.1567 70.0838 23.3142 69.7485C26.1937 68.9141 28.6121 66.4008 29.5467 63.2712L29.9322 61.98H46.5121H63.0919L63.2907 62.793C64.0791 66.0165 66.6123 68.7687 69.6774 69.7317C71.0633 70.1671 73.6826 70.0477 75.1083 69.4841C77.6737 68.4703 79.7746 66.0251 80.6112 63.0799L80.9235 61.98H84.948H88.9724L89.4862 61.4208L90 60.8616V51.4143V41.9669L89.4187 40.9261C87.6389 37.7401 76.3546 18.7675 75.9995 18.3644L75.5782 17.8862L67.7598 17.8309L59.9414 17.7754V12.6093V7.44314L59.5099 6.9737L59.0785 6.50407H29.9707H0.86291L0.431543 6.9737ZM56.9531 11.3821V13.0081H31.4648H5.97656V14.6342V16.2602H31.4648H56.9531V34.242V52.2239H44.209H31.4648V53.8499V55.4759H44.209H56.9531V57.1019V58.7279H43.4526H29.9521L29.5631 57.4139C28.1136 52.516 23.5303 49.6347 19.0266 50.7903C15.8089 51.6157 13.0686 54.4863 12.2913 57.8453L12.0872 58.7279H7.53767H2.98828V57.1057V55.4835L6.72363 55.4319L10.459 55.3802L10.51 53.802L10.5611 52.2239H6.77461H2.98828V30.99V9.75611H29.9707H56.9531V11.3821ZM75.041 22.5793C75.5341 23.4244 75.9375 24.1992 75.9375 24.3009C75.9375 24.4165 73.6713 24.4859 69.9036 24.4859H63.8699L63.4437 24.9796L63.0176 25.4732V33.3812V41.2892L63.4437 41.7827L63.8699 42.2765H75.2298C83.831 42.2765 86.641 42.3321 86.8008 42.506C86.9535 42.6722 87.0117 44.0448 87.0117 47.4797V52.2239H84.7195H82.4272L82.4783 53.802L82.5293 55.3802L84.7705 55.4338L87.0117 55.4874V57.1076V58.7279H83.9565H80.901L80.6969 57.8453C80.3324 56.2698 79.4584 54.6761 78.2429 53.3705C75.4407 50.3601 71.4247 49.684 67.8937 51.628C65.8185 52.7706 64.1174 54.9795 63.438 57.4137L63.0712 58.7279H61.5943H60.1172V39.8853V21.0426H67.1309H74.1445L75.041 22.5793ZM81.123 32.8425C82.7666 35.6402 84.2576 38.1756 84.4362 38.4769L84.761 39.0244H75.3395H65.918V33.3812V27.7379L72.0264 27.7467L78.1348 27.7555L81.123 32.8425ZM23.528 54.4293C26.4036 55.861 27.7654 59.7735 26.4663 62.8712C25.8998 64.2223 24.8286 65.4686 23.6426 66.1565C22.8591 66.611 22.5728 66.6663 21.0059 66.6663C19.4404 66.6663 19.1519 66.6109 18.3691 66.1577C16.7052 65.1945 15.6498 63.7443 15.19 61.7887C14.4004 58.4299 16.3055 54.9883 19.4992 54.0039C20.6376 53.6532 22.3276 53.8315 23.528 54.4293ZM74.4377 54.3964C76.3235 55.3359 77.712 57.3707 77.9637 59.5639C78.1882 61.5187 77.1646 64.2642 75.803 65.3598C74.4414 66.4553 73.8234 66.6667 71.9824 66.6667C69.9599 66.6667 69.2109 66.3574 67.8807 64.9728C66.6086 63.6488 66.0584 62.1772 66.0725 60.1361C66.1038 55.5352 70.5712 52.4701 74.4377 54.3964ZM19.5117 60.3539V61.98H21.0059H22.5V60.3539V58.7279H21.0059H19.5117V60.3539ZM70.4883 60.3539V61.98H71.9824H73.4766V60.3539V58.7279H71.9824H70.4883V60.3539Z" fill="#028C32"/>
</svg>
